<svg width="313" height="248" viewBox="0 0 313 248" fill="none" xmlns="http://www.w3.org/2000/svg">
<path d="M139.5 0.999464C208.44 7.26748 272.881 61.575 236 130.999C209.31 181.24 142.551 185.776 92.5 176.999C86.249 180.012 27.7846 213.422 24.5 196.999C21.9207 184.103 39.9868 163.463 47 154.499C-64.1499 98.1742 47.5937 -7.35663 139.5 0.999464Z" fill="#581B98"/>
<path d="M229 164.5C261 130.999 262 95.5 262 61.5C262 27.5 297.5 78.0005 306.5 104.5C315.5 130.999 311 154.499 311 154.499C311 154.499 306.57 169.161 301 176.999C291.493 190.378 266.5 201 266.5 201C266.5 201 277.618 211.155 282 219.5C286.69 228.431 295.46 237.198 288.5 244.5C282.572 250.719 275.011 245.675 266.5 244.5C247.639 241.895 222.5 223.5 222.5 223.5C222.5 223.5 179.725 231.802 154.5 223.5C135.763 217.333 121 209.499 111.5 196.999C102 184.5 197 198.001 229 164.5Z" fill="#581B98"/>
</svg>
